<?xml version="1.0" encoding="utf-8"?>
<!-- Generator: Adobe Illustrator 24.1.2, SVG Export Plug-In . SVG Version: 6.00 Build 0)  -->
<svg version="1.1" id="Layer_1" xmlns="http://www.w3.org/2000/svg" xmlns:xlink="http://www.w3.org/1999/xlink" x="0px" y="0px"
	 viewBox="0 0 500 500" enable-background="new 0 0 500 500" xml:space="preserve">
<g>
	<g>
		<path fill="#FFFFFF" d="M144.52,447.09H62.03c-1.46,0-2.81-0.41-4.03-1.22c-2.19-1.46-3.29-3.54-3.29-6.22
			c0-1.83,0.71-3.52,2.13-5.06l69.99-69.99H62.03c-2.03,0-3.76-0.72-5.18-2.16c-1.42-1.44-2.13-3.16-2.13-5.15
			c0-2.03,0.71-3.76,2.13-5.18c1.42-1.42,3.15-2.13,5.18-2.13h82.49c1.46,0,2.8,0.41,4.03,1.22c2.19,1.46,3.29,3.52,3.29,6.16
			c0,1.83-0.71,3.52-2.13,5.06l-69.99,70.06h64.81c2.03,0,3.76,0.71,5.18,2.13c1.42,1.42,2.13,3.15,2.13,5.18
			c0,1.99-0.71,3.71-2.13,5.15C148.28,446.37,146.55,447.09,144.52,447.09z"/>
		<path fill="#FFFFFF" d="M202.19,447.09c-6.63,0-12.84-1.24-18.66-3.72c-6.02-2.56-11.27-6.09-15.76-10.58
			c-4.49-4.49-7.98-9.67-10.45-15.55c-2.48-5.88-3.72-12.12-3.72-18.75c0-8.94,2.18-17.08,6.55-24.42
			c4.37-7.34,10.23-13.19,17.59-17.56c7.36-4.37,15.51-6.55,24.45-6.55c6.42,0,12.57,1.21,18.44,3.63
			c5.87,2.42,11.15,5.92,15.82,10.52c1.42,1.46,2.15,3.19,2.2,5.18c-0.04,2.03-0.75,3.78-2.13,5.24l-52.62,52.56
			c5.45,3.58,11.54,5.37,18.29,5.37c5.04,0,9.83-1.07,14.36-3.2c4.53-2.13,8.44-5.17,11.74-9.11c1.58-1.75,3.45-2.62,5.61-2.62
			c1.71,0,3.27,0.55,4.69,1.65c1.79,1.54,2.68,3.47,2.68,5.79c0,1.58-0.57,3.09-1.71,4.51c-4.72,5.65-10.31,10-16.8,13.05
			C216.28,445.56,209.42,447.09,202.19,447.09z M173.53,416.72l46.89-46.83c-5.53-3.54-11.6-5.3-18.23-5.3
			c-6.26,0-11.96,1.52-17.1,4.57c-5.14,3.05-9.24,7.14-12.28,12.28c-3.05,5.14-4.57,10.82-4.57,17.04
			C168.23,405.2,169.99,411.27,173.53,416.72z"/>
		<path fill="#FFFFFF" d="M296.43,447.09c-6.63,0-12.84-1.24-18.66-3.72c-6.02-2.56-11.27-6.09-15.76-10.58
			c-4.49-4.49-7.98-9.67-10.45-15.55c-2.48-5.88-3.72-12.12-3.72-18.75c0-8.94,2.18-17.08,6.55-24.42
			c4.37-7.34,10.23-13.19,17.59-17.56c7.36-4.37,15.51-6.55,24.45-6.55c6.42,0,12.57,1.21,18.44,3.63
			c5.87,2.42,11.15,5.92,15.82,10.52c1.42,1.46,2.15,3.19,2.2,5.18c-0.04,2.03-0.75,3.78-2.13,5.24l-52.62,52.56
			c5.45,3.58,11.54,5.37,18.29,5.37c5.04,0,9.83-1.07,14.36-3.2c4.53-2.13,8.44-5.17,11.74-9.11c1.58-1.75,3.45-2.62,5.61-2.62
			c1.71,0,3.27,0.55,4.69,1.65c1.79,1.54,2.68,3.47,2.68,5.79c0,1.58-0.57,3.09-1.71,4.51c-4.72,5.65-10.31,10-16.8,13.05
			C310.53,445.56,303.67,447.09,296.43,447.09z M267.78,416.72l46.89-46.83c-5.53-3.54-11.6-5.3-18.23-5.3
			c-6.26,0-11.96,1.52-17.1,4.57c-5.14,3.05-9.24,7.14-12.28,12.28c-3.05,5.14-4.57,10.82-4.57,17.04
			C262.47,405.2,264.24,411.27,267.78,416.72z"/>
		<path fill="#FFFFFF" d="M437.57,447.09c-1.99,0-3.71-0.72-5.15-2.16c-1.44-1.44-2.16-3.16-2.16-5.15v-41.28
			c0-6.22-1.52-11.9-4.57-17.04c-3.05-5.14-7.14-9.24-12.28-12.28c-5.14-3.05-10.82-4.57-17.04-4.57c-6.26,0-11.95,1.52-17.07,4.57
			c-5.12,3.05-9.22,7.14-12.29,12.28c-3.07,5.14-4.6,10.82-4.6,17.04v41.28c0,1.99-0.71,3.71-2.13,5.15
			c-1.42,1.44-3.15,2.16-5.18,2.16s-3.76-0.72-5.18-2.16c-1.42-1.44-2.13-3.16-2.13-5.15v-41.28c0-8.94,2.18-17.08,6.56-24.42
			c4.37-7.34,10.23-13.19,17.59-17.56c7.36-4.37,15.51-6.55,24.45-6.55c8.9,0,17.03,2.19,24.39,6.55
			c7.36,4.37,13.22,10.22,17.59,17.56c4.37,7.34,6.55,15.48,6.55,24.42v41.28c0,1.99-0.71,3.71-2.13,5.15
			C441.33,446.37,439.6,447.09,437.57,447.09z"/>
	</g>
	<path fill="#FFFFFF" d="M114.02,55.66l166.17,0c-1.36,11.31-11.02,20.11-22.69,20.11H114.02c-8.67,0-16.58,2.87-23.51,8.53
		c-1.59,1.3-3.06,2.77-4.37,4.37c-5.66,6.93-8.54,14.84-8.54,23.51c0,8.69,2.88,16.62,8.57,23.55c1.3,1.59,2.77,3.05,4.36,4.35
		c6.92,5.64,14.82,8.51,23.48,8.51h179.52c8.66,0,16.56-2.86,23.48-8.51c1.59-1.3,3.06-2.76,4.36-4.35
		c5.69-6.93,8.57-14.86,8.57-23.55v-23.6V78.52c0-11.67,8.8-21.33,20.11-22.69v56.36c0,7.63-1.5,15.02-4.47,21.95
		c-2.98,6.96-7.03,13.04-12.05,18.05c-5.02,5.02-11.09,9.07-18.05,12.05c-6.94,2.97-14.33,4.47-21.95,4.47H114.02
		c-7.63,0-15.01-1.5-21.95-4.47c-6.96-2.98-13.03-7.03-18.05-12.05c-5.02-5.01-9.07-11.09-12.05-18.05
		c-2.97-6.94-4.47-14.33-4.47-21.95c0-7.63,1.5-15.01,4.47-21.95C64.94,83.27,69,77.2,74.01,72.18c5.02-5.02,11.09-9.07,18.05-12.05
		C99,57.17,106.39,55.66,114.02,55.66 M352.8,52.91c-14.14,0-25.61,11.47-25.61,25.61v0v10.06v23.6c0,8.08-2.65,15.35-7.95,21.81
		c-1.19,1.45-2.52,2.78-3.97,3.97c-6.45,5.26-13.69,7.89-21.74,7.89H114.02c-8.05,0-15.3-2.63-21.74-7.89
		c-1.45-1.18-2.79-2.52-3.97-3.97c-5.3-6.46-7.95-13.73-7.95-21.81c0-8.06,2.64-15.32,7.92-21.77c1.19-1.45,2.52-2.79,3.98-3.98
		c6.45-5.27,13.71-7.91,21.77-7.91h143.48c14.14,0,25.61-11.47,25.61-25.61v0H114.02c-8.04,0-15.72,1.57-23.03,4.7
		c-7.32,3.13-13.62,7.34-18.91,12.63c-5.29,5.29-9.5,11.6-12.63,18.91c-3.13,7.32-4.69,15-4.69,23.03s1.57,15.72,4.69,23.03
		c3.13,7.32,7.34,13.62,12.63,18.91c5.29,5.29,11.6,9.5,18.91,12.63c7.32,3.13,15,4.69,23.03,4.69h179.52
		c8.04,0,15.72-1.57,23.03-4.69c7.32-3.13,13.62-7.34,18.91-12.63c5.29-5.29,9.5-11.6,12.63-18.91c3.13-7.32,4.69-15,4.69-23.03
		V52.91L352.8,52.91z"/>
	<path fill="#FFFFFF" d="M430.14,93.94c6.84,0,12.4,5.56,12.4,12.4v12.42h-12.4c-1.52,0-2.75,1.23-2.75,2.75v69.34v40.73v14.09
		c0,9.09-1.8,17.91-5.34,26.19c-3.55,8.3-8.38,15.54-14.37,21.52c-5.99,5.99-13.23,10.82-21.53,14.37
		c-8.28,3.54-17.09,5.33-26.19,5.33h-6.78v-24.82h6.78c9.41,0,18.08-2.89,25.74-8.6c3.17-2.36,5.96-5.16,8.31-8.33
		c5.67-7.65,8.55-16.29,8.55-25.68v-14.13v-40.68V93.94h12.41H430.14 M430.14,91.19h-15.16h-15.16v99.66v40.68v0.05v14.08
		c0,8.83-2.67,16.85-8.01,24.05c-2.18,2.95-4.8,5.57-7.74,7.76c-7.21,5.37-15.25,8.05-24.1,8.05h-9.53v30.32h9.53
		c9.52,0,18.61-1.85,27.27-5.56c8.66-3.7,16.12-8.69,22.39-14.95c6.26-6.26,11.24-13.72,14.95-22.39c3.7-8.66,5.56-17.75,5.56-27.27
		v-14.09v-0.05v-40.68v-69.34h15.15v-15.17C445.29,97.97,438.51,91.19,430.14,91.19L430.14,91.19z"/>
	<path fill="#FFFFFF" d="M411.85,55.66c2.89,0,5.28,0.99,7.32,3.03c2.04,2.04,3.03,4.44,3.03,7.32c0,2.89-0.99,5.28-3.03,7.32
		c-2.04,2.04-4.44,3.03-7.32,3.03c-2.89,0-5.28-0.99-7.32-3.03c-2.04-2.04-3.03-4.44-3.03-7.32c0-2.89,0.99-5.28,3.03-7.32
		C406.57,56.66,408.96,55.66,411.85,55.66 M411.85,52.91c-3.62,0-6.71,1.28-9.27,3.84c-2.56,2.56-3.84,5.65-3.84,9.27
		c0,3.62,1.28,6.71,3.84,9.27c2.56,2.56,5.65,3.84,9.27,3.84c3.62,0,6.71-1.28,9.27-3.84c2.56-2.56,3.84-5.65,3.84-9.27
		c0-3.62-1.28-6.71-3.84-9.27C418.56,54.2,415.47,52.91,411.85,52.91L411.85,52.91z"/>
	<g>
		<path fill="#FFFFFF" d="M190.69,292.05c2.88,0,5.27,0.99,7.31,3.03c2.04,2.03,3.03,4.42,3.03,7.3c0,2.88-0.99,5.27-3.03,7.31
			c-2.04,2.04-4.42,3.03-7.3,3.03c-2.88,0-5.27-0.99-7.31-3.02c-2.04-2.04-3.02-4.43-3.02-7.31c0-2.88,0.99-5.27,3.02-7.31
			C185.42,293.04,187.81,292.05,190.69,292.05 M190.69,289.3c-3.61,0-6.69,1.28-9.25,3.83c-2.55,2.55-3.83,5.64-3.83,9.25
			c0,3.61,1.28,6.69,3.83,9.25c2.56,2.55,5.64,3.83,9.25,3.83c3.61,0,6.69-1.28,9.25-3.83c2.56-2.56,3.83-5.64,3.83-9.25
			c0-3.61-1.28-6.7-3.83-9.25C197.39,290.58,194.31,289.3,190.69,289.3L190.69,289.3z"/>
		<path fill="#FFFFFF" d="M158.35,292.05c2.88,0,5.27,0.99,7.3,3.03c2.04,2.04,3.03,4.43,3.03,7.31c0,2.88-0.99,5.27-3.03,7.31
			c-2.04,2.04-4.42,3.03-7.3,3.03c-2.88,0-5.27-0.99-7.31-3.02c-2.04-2.04-3.03-4.43-3.03-7.31c0-2.88,0.99-5.27,3.03-7.31
			C153.08,293.04,155.47,292.05,158.35,292.05 M158.35,289.3c-3.61,0-6.7,1.28-9.25,3.83c-2.55,2.55-3.83,5.64-3.83,9.25
			c0,3.61,1.28,6.69,3.83,9.25c2.55,2.55,5.64,3.83,9.25,3.83c3.61,0,6.69-1.28,9.25-3.83c2.55-2.56,3.83-5.64,3.83-9.25
			c0-3.61-1.28-6.7-3.83-9.25C165.04,290.58,161.96,289.3,158.35,289.3L158.35,289.3z"/>
	</g>
	<g>
		<path fill="#FFFFFF" d="M292.21,197.41c7.81,0,15.36,1.54,22.46,4.58c7.12,3.05,13.34,7.19,18.47,12.33
			c5.14,5.13,9.28,11.35,12.33,18.46c3.04,7.1,4.58,14.65,4.58,22.46v57.83h-20.67v-57.82c0-9.26-3.09-17.48-9.18-24.43
			c-6.09-6.94-13.76-11.09-22.8-12.36c-0.13-0.02-0.25-0.03-0.38-0.03c-0.66,0-1.3,0.24-1.8,0.67c-0.6,0.52-0.95,1.28-0.95,2.08
			v27.68v6.39c0,7.8-1.54,15.36-4.58,22.46c-3.05,7.12-7.19,13.34-12.33,18.47c-5.13,5.13-11.35,9.28-18.47,12.33
			c-7.1,3.04-14.66,4.58-22.46,4.58h-22.02c0.71-11.52,10.31-20.67,22.01-20.67c8.83,0,16.89-2.92,23.96-8.67
			c1.63-1.33,3.13-2.82,4.46-4.44c5.8-7.08,8.74-15.17,8.74-24.04v-21.37v-36.46H292.21 M292.21,194.66h-21.37v39.21v21.37
			c0,8.26-2.71,15.69-8.12,22.3c-1.21,1.48-2.58,2.84-4.06,4.05c-6.6,5.37-14,8.06-22.23,8.06c-13.7,0-24.8,11.1-24.8,24.8v1.37
			h24.81c8.22,0,16.07-1.6,23.55-4.8c7.48-3.2,13.92-7.5,19.33-12.91c5.41-5.41,9.71-11.85,12.91-19.33
			c3.2-7.48,4.8-15.33,4.8-23.55v-6.39v-27.68c8.41,1.18,15.44,5,21.11,11.45c5.66,6.46,8.5,13.99,8.5,22.61v60.57h26.17v-60.58
			c0-8.21-1.6-16.06-4.8-23.54c-3.2-7.48-7.5-13.92-12.91-19.33c-5.41-5.41-11.85-9.71-19.33-12.91
			C308.28,196.26,300.43,194.66,292.21,194.66L292.21,194.66z"/>
		<path fill="#FFFFFF" d="M222.86,197.41c-1.37,11.62-11.28,20.67-23.26,20.67h-84.26c-8.86,0-16.95,2.94-24.03,8.73
			c-1.62,1.33-3.12,2.83-4.45,4.45c-5.76,7.06-8.69,15.13-8.69,23.97c0,8.84,2.92,16.91,8.69,23.97c1.33,1.62,2.82,3.12,4.44,4.45
			c7.08,5.8,15.17,8.73,24.03,8.73c10.57,0,19.17,8.6,19.17,19.17v1.51h-19.17c-7.81,0-15.36-1.54-22.46-4.58
			c-7.12-3.04-13.33-7.19-18.47-12.33c-5.13-5.13-9.28-11.34-12.32-18.47c-3.04-7.1-4.58-14.66-4.58-22.47
			c0-7.8,1.54-15.36,4.58-22.46c3.05-7.12,7.19-13.34,12.32-18.47c5.14-5.13,11.35-9.28,18.47-12.33c7.1-3.04,14.66-4.58,22.46-4.58
			H222.86 M225.77,194.66h0.01H225.77z M225.77,194.66H115.33c-8.22,0-16.07,1.6-23.55,4.8c-7.48,3.2-13.92,7.5-19.33,12.91
			c-5.41,5.41-9.71,11.85-12.91,19.33c-3.2,7.48-4.8,15.33-4.8,23.54c0,8.22,1.6,16.07,4.8,23.55c3.2,7.48,7.5,13.92,12.91,19.33
			c5.41,5.41,11.85,9.71,19.33,12.91c7.48,3.2,15.33,4.8,23.55,4.8h21.92v-4.26c0-12.11-9.81-21.92-21.92-21.92
			c-8.25,0-15.68-2.71-22.29-8.11c-1.48-1.21-2.84-2.58-4.06-4.06c-5.38-6.59-8.07-14-8.07-22.24c0-8.23,2.69-15.64,8.07-22.24
			c1.21-1.48,2.57-2.85,4.06-4.06c6.61-5.41,14.03-8.11,22.29-8.11h84.26C214.05,220.83,225.77,209.11,225.77,194.66L225.77,194.66z
			"/>
	</g>
	<path fill="#FFFFFF" d="M305,55.66c2.9,0,5.31,1,7.36,3.05c2.05,2.05,3.05,4.46,3.05,7.36c0,2.9-1,5.31-3.05,7.36
		c-2.05,2.05-4.46,3.05-7.36,3.05s-5.31-1-7.36-3.05c-2.05-2.05-3.05-4.46-3.05-7.36c0-2.9,1-5.31,3.05-7.36
		C299.69,56.66,302.1,55.66,305,55.66 M305,52.91c-3.64,0-6.74,1.29-9.31,3.86c-2.57,2.57-3.85,5.67-3.85,9.31
		c0,3.64,1.28,6.74,3.85,9.31c2.57,2.57,5.67,3.85,9.31,3.85c3.64,0,6.74-1.28,9.31-3.85c2.57-2.57,3.85-5.67,3.85-9.31
		c0-3.64-1.28-6.74-3.85-9.31C311.74,54.2,308.63,52.91,305,52.91L305,52.91z"/>
</g>
<g>
</g>
<g>
</g>
<g>
</g>
<g>
</g>
<g>
</g>
<g>
</g>
</svg>
